# xmcd CD database file
#
# Track frame offsets:
#	150
#	18299
#	48746
#	75060
#	88662
#	106980
#	126966
#	136761
#	156230
#	190555
#	216960
#
# Disc length: 3175 seconds
#
# Revision: 0
# Processed by: cddbd v1.5.2PL0 Copyright (c) Steve Scherf et al.
# Submitted via: CDex 1.51
#
DISCID=850c650b
DTITLE=TSF Jazz - TSF JAZZ 1999-2009 - 10 ans - [CD 2003]
DYEAR=2003
DGENRE=Jazz
TTITLE0=Les Frères Belmondo - Notre Père
TTITLE1=Michael Brecker Quindectet - Broadband
TTITLE2=Antoine Hervé - Just Live To Tell The Tale
TTITLE3=Cassandra Wilson - Crazy
TTITLE4=Vincent Artaud - Elément 12
TTITLE5=Pierre Christophe Trio - G.E.B. Piano Roll
TTITLE6=Stefano Bollani - Pierre Et Le Loup
TTITLE7=Michel Pastre - Three O'Clock In The Morning
TTITLE8=Makoto Ozone - Samba D'Rivera
TTITLE9=Stéphane Guillaume - Sur Le Tarmac
TTITLE10=Jason Moran - Gentle Shifts South
EXTD=YEAR: 2003
EXTT0=
EXTT1=
EXTT2=
EXTT3=
EXTT4=
EXTT5=
EXTT6=
EXTT7=
EXTT8=
EXTT9=
EXTT10=
PLAYORDER=
